<svg width="47" height="47" viewBox="0 0 47 47" fill="none" xmlns="http://www.w3.org/2000/svg">
<path d="M40.591 22.885H23.72V24.118H40.591V22.885Z" fill="#010101"/>
<path d="M36.0795 34.9884L24.1581 23.0635L23.2861 23.9353L35.2075 35.8601L36.0795 34.9884Z" fill="#010101"/>
<path d="M35.2549 39.1354L34.7804 37.9952L26.0986 41.6078L26.5731 42.7481L35.2549 39.1354Z" fill="#010101"/>
<path d="M12.229 35.868L11.359 34.994L23.284 23.066L24.161 23.937L12.229 35.868Z" fill="#010101"/>
<path d="M23.724 22.885H6.849V24.118H23.724V22.885Z" fill="#010101"/>
<path d="M9.22965 12.4323L8.08728 11.9578L4.49793 20.5989L5.6403 21.0735L9.22965 12.4323Z" fill="#010101"/>
<path d="M21.2978 5.42602L20.824 4.28223L12.1791 7.86315L12.6528 9.00694L21.2978 5.42602Z" fill="#010101"/>
<path d="M24.336 6.63H23.106V23.498H24.336V6.63Z" fill="#010101"/>
<path d="M35.2576 7.85578L26.6163 4.27732L26.1442 5.41742L34.7854 8.99588L35.2576 7.85578Z" fill="#010101"/>
<path d="M43.475 21.237C42.225 21.237 41.212 22.251 41.212 23.498C41.212 24.748 42.225 25.762 43.475 25.762C44.722 25.762 45.736 24.748 45.736 23.498C45.735 22.251 44.722 21.237 43.475 21.237ZM43.475 26.995C41.546 26.995 39.974 25.428 39.974 23.498C39.974 21.569 41.546 20.004 43.475 20.004C45.402 20.004 46.973 21.569 46.973 23.498C46.973 25.428 45.401 26.995 43.475 26.995Z" fill="#010101"/>
<path d="M37.688 35.202C36.441 35.202 35.425 36.216 35.425 37.466C35.425 38.713 36.441 39.73 37.688 39.73C38.935 39.73 39.952 38.713 39.952 37.466C39.951 36.216 38.935 35.202 37.688 35.202ZM37.688 40.96C35.759 40.96 34.194 39.392 34.194 37.466C34.194 35.534 35.759 33.968 37.688 33.968C39.617 33.968 41.186 35.534 41.186 37.466C41.186 39.392 39.616 40.96 37.688 40.96Z" fill="#010101"/>
<path d="M23.724 40.989C22.473 40.989 21.456 42.003 21.456 43.25C21.456 44.497 22.473 45.514 23.724 45.514C24.97 45.514 25.988 44.497 25.988 43.25C25.988 42.003 24.97 40.989 23.724 40.989ZM23.724 46.748C21.794 46.748 20.226 45.179 20.226 43.25C20.226 41.321 21.794 39.756 23.724 39.756C25.653 39.756 27.221 41.321 27.221 43.25C27.221 45.179 25.652 46.748 23.724 46.748Z" fill="#010101"/>
<path d="M9.759 35.202C8.509 35.202 7.491 36.216 7.491 37.466C7.491 38.713 8.509 39.73 9.759 39.73C11.005 39.73 12.026 38.713 12.026 37.466C12.025 36.216 11.005 35.202 9.759 35.202ZM9.759 40.96C7.826 40.96 6.261 39.392 6.261 37.466C6.261 35.534 7.826 33.968 9.759 33.968C11.688 33.968 13.257 35.534 13.257 37.466C13.257 39.392 11.688 40.96 9.759 40.96Z" fill="#010101"/>
<path d="M3.975 21.237C2.724 21.237 1.708 22.251 1.708 23.498C1.708 24.748 2.724 25.762 3.975 25.762C5.218 25.762 6.236 24.748 6.236 23.498C6.235 22.251 5.218 21.237 3.975 21.237ZM3.975 26.995C2.042 26.995 0.473999 25.428 0.473999 23.498C0.473999 21.569 2.042 20.004 3.975 20.004C5.898 20.004 7.472 21.569 7.472 23.498C7.472 25.428 5.897 26.995 3.975 26.995Z" fill="#010101"/>
<path d="M9.759 7.271C8.509 7.271 7.491 8.287 7.491 9.531C7.491 10.781 8.509 11.799 9.759 11.799C11.005 11.799 12.026 10.781 12.026 9.531C12.025 8.286 11.005 7.271 9.759 7.271ZM9.759 13.031C7.826 13.031 6.261 11.463 6.261 9.53C6.261 7.604 7.826 6.04 9.759 6.04C11.688 6.04 13.257 7.604 13.257 9.53C13.257 11.463 11.688 13.031 9.759 13.031Z" fill="#010101"/>
<path d="M23.724 1.486C22.473 1.486 21.456 2.499 21.456 3.749C21.456 4.997 22.473 6.014 23.724 6.014C24.97 6.014 25.988 4.997 25.988 3.749C25.987 2.499 24.97 1.486 23.724 1.486ZM23.724 7.247C21.794 7.247 20.226 5.679 20.226 3.749C20.226 1.821 21.794 0.252001 23.724 0.252001C25.653 0.252001 27.221 1.821 27.221 3.749C27.221 5.679 25.652 7.247 23.724 7.247Z" fill="#010101"/>
<path d="M37.688 7.271C36.441 7.271 35.425 8.287 35.425 9.531C35.425 10.781 36.441 11.799 37.688 11.799C38.935 11.799 39.952 10.781 39.952 9.531C39.951 8.286 38.935 7.271 37.688 7.271ZM37.688 13.031C35.759 13.031 34.194 11.463 34.194 9.53C34.194 7.604 35.759 6.04 37.688 6.04C39.617 6.04 41.186 7.604 41.186 9.53C41.186 11.463 39.616 13.031 37.688 13.031Z" fill="#010101"/>
</svg>
