<svg width="119" height="47" viewBox="0 0 119 47" fill="none" xmlns="http://www.w3.org/2000/svg">
<path d="M40.591 22.885H23.72V24.118H40.591V22.885Z" fill="#010101"/>
<path d="M36.0795 34.9884L24.1581 23.0635L23.2861 23.9353L35.2075 35.8601L36.0795 34.9884Z" fill="#010101"/>
<path d="M35.2549 39.1354L34.7804 37.9952L26.0986 41.6078L26.5731 42.7481L35.2549 39.1354Z" fill="#010101"/>
<path d="M12.229 35.868L11.359 34.994L23.284 23.066L24.161 23.937L12.229 35.868Z" fill="#010101"/>
<path d="M23.724 22.885H6.849V24.118H23.724V22.885Z" fill="#010101"/>
<path d="M9.22965 12.4323L8.08728 11.9578L4.49793 20.5989L5.6403 21.0735L9.22965 12.4323Z" fill="#010101"/>
<path d="M21.2978 5.42602L20.824 4.28223L12.1791 7.86315L12.6528 9.00694L21.2978 5.42602Z" fill="#010101"/>
<path d="M24.336 6.63H23.106V23.498H24.336V6.63Z" fill="#010101"/>
<path d="M35.2576 7.85578L26.6163 4.27732L26.1442 5.41742L34.7854 8.99588L35.2576 7.85578Z" fill="#010101"/>
<path d="M43.475 21.237C42.225 21.237 41.212 22.251 41.212 23.498C41.212 24.748 42.225 25.762 43.475 25.762C44.722 25.762 45.736 24.748 45.736 23.498C45.735 22.251 44.722 21.237 43.475 21.237ZM43.475 26.995C41.546 26.995 39.974 25.428 39.974 23.498C39.974 21.569 41.546 20.004 43.475 20.004C45.402 20.004 46.973 21.569 46.973 23.498C46.973 25.428 45.401 26.995 43.475 26.995Z" fill="#010101"/>
<path d="M37.688 35.202C36.441 35.202 35.425 36.216 35.425 37.466C35.425 38.713 36.441 39.73 37.688 39.73C38.935 39.73 39.952 38.713 39.952 37.466C39.951 36.216 38.935 35.202 37.688 35.202ZM37.688 40.96C35.759 40.96 34.194 39.392 34.194 37.466C34.194 35.534 35.759 33.968 37.688 33.968C39.617 33.968 41.186 35.534 41.186 37.466C41.186 39.392 39.616 40.96 37.688 40.96Z" fill="#010101"/>
<path d="M23.724 40.989C22.473 40.989 21.456 42.003 21.456 43.25C21.456 44.497 22.473 45.514 23.724 45.514C24.97 45.514 25.988 44.497 25.988 43.25C25.988 42.003 24.97 40.989 23.724 40.989ZM23.724 46.748C21.794 46.748 20.226 45.179 20.226 43.25C20.226 41.321 21.794 39.756 23.724 39.756C25.653 39.756 27.221 41.321 27.221 43.25C27.221 45.179 25.652 46.748 23.724 46.748Z" fill="#010101"/>
<path d="M9.759 35.202C8.509 35.202 7.491 36.216 7.491 37.466C7.491 38.713 8.509 39.73 9.759 39.73C11.005 39.73 12.026 38.713 12.026 37.466C12.025 36.216 11.005 35.202 9.759 35.202ZM9.759 40.96C7.826 40.96 6.261 39.392 6.261 37.466C6.261 35.534 7.826 33.968 9.759 33.968C11.688 33.968 13.257 35.534 13.257 37.466C13.257 39.392 11.688 40.96 9.759 40.96Z" fill="#010101"/>
<path d="M3.975 21.237C2.724 21.237 1.708 22.251 1.708 23.498C1.708 24.748 2.724 25.762 3.975 25.762C5.218 25.762 6.236 24.748 6.236 23.498C6.235 22.251 5.218 21.237 3.975 21.237ZM3.975 26.995C2.042 26.995 0.473999 25.428 0.473999 23.498C0.473999 21.569 2.042 20.004 3.975 20.004C5.898 20.004 7.472 21.569 7.472 23.498C7.472 25.428 5.897 26.995 3.975 26.995Z" fill="#010101"/>
<path d="M9.759 7.271C8.509 7.271 7.491 8.287 7.491 9.531C7.491 10.781 8.509 11.799 9.759 11.799C11.005 11.799 12.026 10.781 12.026 9.531C12.025 8.286 11.005 7.271 9.759 7.271ZM9.759 13.031C7.826 13.031 6.261 11.463 6.261 9.53C6.261 7.604 7.826 6.04 9.759 6.04C11.688 6.04 13.257 7.604 13.257 9.53C13.257 11.463 11.688 13.031 9.759 13.031Z" fill="#010101"/>
<path d="M23.724 1.486C22.473 1.486 21.456 2.499 21.456 3.749C21.456 4.997 22.473 6.014 23.724 6.014C24.97 6.014 25.988 4.997 25.988 3.749C25.987 2.499 24.97 1.486 23.724 1.486ZM23.724 7.247C21.794 7.247 20.226 5.679 20.226 3.749C20.226 1.821 21.794 0.252001 23.724 0.252001C25.653 0.252001 27.221 1.821 27.221 3.749C27.221 5.679 25.652 7.247 23.724 7.247Z" fill="#010101"/>
<path d="M37.688 7.271C36.441 7.271 35.425 8.287 35.425 9.531C35.425 10.781 36.441 11.799 37.688 11.799C38.935 11.799 39.952 10.781 39.952 9.531C39.951 8.286 38.935 7.271 37.688 7.271ZM37.688 13.031C35.759 13.031 34.194 11.463 34.194 9.53C34.194 7.604 35.759 6.04 37.688 6.04C39.617 6.04 41.186 7.604 41.186 9.53C41.186 11.463 39.616 13.031 37.688 13.031Z" fill="#010101"/>
<path d="M57.966 5.721C57.57 5.721 57.261 5.828 57.04 6.042C56.819 6.26 56.706 6.562 56.706 6.958V10.54C56.706 11.365 57.128 11.778 57.979 11.778C58.172 11.778 58.338 11.758 58.481 11.719C58.625 11.683 58.754 11.631 58.868 11.56C58.981 11.495 59.087 11.411 59.19 11.319C59.29 11.219 59.407 11.112 59.528 10.995L60.45 12.093C60.096 12.463 59.722 12.736 59.329 12.905C58.933 13.078 58.481 13.166 57.979 13.166C57.122 13.166 56.432 12.944 55.916 12.503C55.398 12.058 55.139 11.408 55.139 10.541V6.959C55.139 6.557 55.207 6.189 55.348 5.865C55.487 5.547 55.682 5.267 55.936 5.043C56.186 4.815 56.485 4.641 56.832 4.521C57.172 4.397 57.553 4.335 57.965 4.335C58.264 4.335 58.543 4.355 58.779 4.397C59.019 4.44 59.238 4.511 59.442 4.612C59.64 4.713 59.832 4.842 60.001 5.005C60.176 5.164 60.336 5.357 60.492 5.583L59.494 6.558C59.375 6.363 59.185 6.178 58.932 5.999C58.674 5.821 58.353 5.731 57.966 5.721Z" fill="#010101"/>
<path d="M63.944 9.354V11.651H66.868V13.038H62.431V4.461H66.656V5.848H63.944V8.033H66.228V9.354H63.944Z" fill="#010101"/>
<path d="M73.593 4.461H74.983V13.038H72.512L70.304 6.214V13.038H68.913V4.461H71.161L73.593 11.414V4.461Z" fill="#010101"/>
<path d="M76.675 5.848V4.461H82.439V5.848H80.331V13.038H78.771V5.848H76.675Z" fill="#010101"/>
<path d="M85.681 8.17H86.994C87.221 8.17 87.402 8.111 87.533 7.997C87.666 7.884 87.737 7.705 87.737 7.462V6.644C87.737 6.374 87.678 6.173 87.562 6.042C87.441 5.912 87.249 5.848 86.98 5.848H85.681V8.17ZM88.94 8.673C88.698 8.975 88.36 9.216 87.911 9.394L89.595 13.039H87.999L86.397 9.558H85.68V13.039H84.117V4.462H86.992C87.745 4.462 88.323 4.641 88.713 4.991C89.106 5.345 89.297 5.897 89.297 6.657V7.475C89.298 7.968 89.181 8.371 88.94 8.673Z" fill="#010101"/>
<path d="M95.671 6.955C95.671 6.561 95.536 6.257 95.276 6.042C95.006 5.828 94.682 5.721 94.284 5.721H94.108C93.712 5.721 93.379 5.828 93.118 6.04C92.854 6.247 92.718 6.549 92.718 6.945V10.54C92.718 10.97 92.849 11.284 93.105 11.478C93.361 11.676 93.703 11.774 94.122 11.774H94.285C94.717 11.774 95.051 11.676 95.301 11.478C95.547 11.284 95.672 10.969 95.672 10.54V6.955H95.671ZM95.439 4.51C95.793 4.63 96.108 4.799 96.372 5.023C96.638 5.244 96.846 5.517 97.005 5.841C97.161 6.166 97.239 6.533 97.239 6.945V10.54C97.239 10.97 97.161 11.346 97.009 11.671C96.856 11.992 96.652 12.265 96.384 12.489C96.118 12.713 95.807 12.878 95.449 12.992C95.095 13.106 94.706 13.165 94.284 13.165H94.121C93.692 13.165 93.296 13.109 92.933 12.999C92.57 12.889 92.261 12.726 91.994 12.502C91.732 12.278 91.527 12.005 91.375 11.674C91.232 11.349 91.156 10.97 91.156 10.54V6.945C91.156 6.54 91.234 6.178 91.39 5.854C91.542 5.532 91.753 5.256 92.021 5.032C92.287 4.811 92.595 4.636 92.956 4.516C93.313 4.392 93.697 4.33 94.109 4.33H94.285C94.699 4.331 95.083 4.393 95.439 4.51Z" fill="#010101"/>
<path d="M59.427 21.729C59.427 21.436 59.386 21.183 59.284 20.972C59.19 20.761 59.057 20.585 58.894 20.455C58.729 20.318 58.54 20.222 58.323 20.163C58.112 20.104 57.882 20.075 57.634 20.075H56.353V26.898H57.589C58.177 26.898 58.632 26.755 58.953 26.466C59.27 26.173 59.427 25.768 59.427 25.248V21.729V21.729ZM57.634 19.192C58.511 19.192 59.187 19.419 59.657 19.87C60.128 20.325 60.359 20.946 60.359 21.728V25.249C60.359 25.704 60.291 26.093 60.151 26.415C60.014 26.736 59.823 26.999 59.579 27.204C59.337 27.401 59.05 27.552 58.71 27.642C58.375 27.736 58.005 27.785 57.599 27.785H55.417V19.192H57.634V19.192Z" fill="#010101"/>
<path d="M63.808 23.823V26.889H66.909V27.772H62.876V19.192H66.669V20.075H63.808V22.962H66.218V23.823H63.808Z" fill="#010101"/>
<path d="M71.638 20.455C71.245 20.455 70.937 20.562 70.712 20.773C70.488 20.991 70.378 21.295 70.378 21.692V25.271C70.378 26.096 70.804 26.508 71.654 26.508C71.846 26.508 72.01 26.488 72.157 26.449C72.303 26.414 72.427 26.361 72.544 26.293C72.657 26.225 72.765 26.145 72.862 26.047C72.966 25.953 73.077 25.846 73.206 25.725L74.126 26.823C73.769 27.194 73.397 27.467 73.002 27.638C72.607 27.809 72.157 27.895 71.654 27.895C70.797 27.895 70.108 27.674 69.589 27.233C69.075 26.791 68.81 26.138 68.81 25.271V21.692C68.81 21.286 68.881 20.922 69.025 20.598C69.161 20.276 69.359 20 69.609 19.772C69.863 19.545 70.162 19.37 70.505 19.251C70.846 19.127 71.226 19.068 71.638 19.068C71.944 19.068 72.216 19.088 72.453 19.127C72.694 19.173 72.915 19.24 73.116 19.345C73.317 19.443 73.505 19.575 73.677 19.735C73.85 19.894 74.013 20.089 74.165 20.316L73.167 21.287C73.048 21.093 72.862 20.908 72.606 20.732C72.347 20.553 72.028 20.462 71.638 20.455Z" fill="#010101"/>
<path d="M80.521 19.192H82.084V25.183C82.084 25.627 82.016 26.018 81.862 26.356C81.716 26.693 81.515 26.973 81.252 27.204C80.992 27.431 80.68 27.603 80.313 27.72C79.95 27.841 79.542 27.896 79.096 27.896C78.65 27.896 78.244 27.841 77.881 27.727C77.514 27.613 77.195 27.445 76.933 27.217C76.671 26.989 76.465 26.704 76.319 26.363C76.176 26.022 76.108 25.629 76.108 25.184V19.193H77.671V25.184C77.671 25.639 77.798 25.974 78.044 26.187C78.291 26.402 78.636 26.509 79.083 26.509C79.528 26.509 79.88 26.402 80.136 26.187C80.396 25.974 80.523 25.639 80.523 25.184V19.192H80.521Z" fill="#010101"/>
<path d="M85.995 19.192V26.382H89.175V27.769H84.481V19.192H85.995Z" fill="#010101"/>
<path d="M89.363 20.582V19.195H95.132V20.582H93.021V27.769H91.458V20.582H89.363Z" fill="#010101"/>
<path d="M101.236 19.192H102.798V25.183C102.798 25.627 102.728 26.018 102.577 26.356C102.429 26.693 102.227 26.973 101.964 27.204C101.704 27.431 101.392 27.603 101.026 27.72C100.662 27.841 100.255 27.896 99.808 27.896C99.36 27.896 98.956 27.841 98.593 27.727C98.226 27.613 97.911 27.445 97.645 27.217C97.382 26.989 97.177 26.704 97.031 26.363C96.892 26.022 96.82 25.629 96.82 25.184V19.193H98.386V25.184C98.386 25.639 98.509 25.974 98.752 26.187C99.003 26.402 99.35 26.509 99.794 26.509C100.239 26.509 100.591 26.402 100.847 26.187C101.111 25.974 101.237 25.639 101.237 25.184V19.192H101.236Z" fill="#010101"/>
<path d="M106.747 22.9H108.06C108.287 22.9 108.469 22.841 108.603 22.731C108.736 22.615 108.804 22.439 108.804 22.192V21.374C108.804 21.104 108.745 20.907 108.628 20.776C108.508 20.646 108.314 20.579 108.046 20.579H106.747V22.9ZM110.009 23.404C109.769 23.706 109.423 23.95 108.98 24.125L110.658 27.769H109.07L107.466 24.288H106.747V27.769H105.183V19.193H108.06C108.817 19.193 109.392 19.371 109.782 19.722C110.172 20.076 110.37 20.631 110.37 21.388V22.209C110.369 22.702 110.249 23.103 110.009 23.404Z" fill="#010101"/>
<path d="M115.941 24.476L115.149 20.757L114.34 24.476H115.941ZM116.12 19.166L118.351 27.772H116.762L116.269 25.739H114.015L113.508 27.772H111.904L114.2 19.166H116.12Z" fill="#010101"/>
<path d="M59.203 36.537C59.203 36.108 59.093 35.797 58.865 35.602C58.637 35.407 58.309 35.309 57.874 35.309H56.923V41.129H57.775C58.201 41.129 58.545 41.027 58.808 40.833C59.07 40.635 59.204 40.32 59.204 39.891V36.537H59.203ZM57.878 33.923C58.761 33.923 59.456 34.141 59.96 34.569C60.464 34.997 60.72 35.654 60.72 36.537V39.891C60.72 40.814 60.456 41.486 59.941 41.899C59.421 42.311 58.703 42.516 57.778 42.516H55.408V33.922H57.878V33.923Z" fill="#010101"/>
<path d="M64.855 33.923H63.292V42.503H64.855V33.923Z" fill="#010101"/>
<path d="M70.216 37.759H73.116V41.542C72.713 41.899 72.284 42.165 71.829 42.351C71.375 42.537 70.891 42.626 70.368 42.626C69.946 42.626 69.555 42.571 69.199 42.461C68.842 42.347 68.534 42.175 68.273 41.954C68.01 41.729 67.805 41.458 67.659 41.126C67.511 40.798 67.438 40.425 67.438 40.006V36.424C67.438 36.018 67.51 35.657 67.667 35.333C67.815 35.007 68.021 34.731 68.283 34.505C68.546 34.276 68.854 34.105 69.212 33.982C69.57 33.859 69.949 33.8 70.355 33.8C70.951 33.8 71.457 33.904 71.873 34.114C72.291 34.325 72.652 34.631 72.951 35.033L71.983 36.104C71.769 35.865 71.525 35.647 71.246 35.461C70.963 35.275 70.668 35.186 70.355 35.186C69.957 35.186 69.625 35.295 69.359 35.514C69.089 35.731 68.957 36.034 68.957 36.423V40.005C68.957 40.424 69.084 40.735 69.34 40.94C69.596 41.142 69.938 41.239 70.363 41.239C70.606 41.239 70.817 41.217 71.002 41.177C71.182 41.135 71.376 41.034 71.578 40.875V39.021H70.217V37.759H70.216Z" fill="#010101"/>
<path d="M77.341 33.923H75.778V42.503H77.341V33.923Z" fill="#010101"/>
<path d="M79.487 35.313V33.927H85.252V35.313H83.144V42.503H81.582V35.313H79.487Z" fill="#010101"/>
<path d="M89.792 39.21L88.997 35.488L88.19 39.21H89.792ZM89.971 33.9L92.202 42.503H90.61L90.12 40.474H87.866L87.36 42.503H85.758L88.051 33.9H89.971Z" fill="#010101"/>
<path d="M95.53 33.923V41.116H98.714V42.499H94.017V33.923H95.53Z" fill="#010101"/>
</svg>
