<svg width="64" height="39" viewBox="0 0 64 39" fill="none" xmlns="http://www.w3.org/2000/svg">
<path d="M2.96601 1.721C2.57001 1.721 2.26101 1.828 2.04001 2.042C1.81901 2.26 1.70601 2.562 1.70601 2.958V6.54C1.70601 7.365 2.128 7.778 2.979 7.778C3.172 7.778 3.33801 7.758 3.48101 7.719C3.62501 7.683 3.754 7.631 3.868 7.56C3.981 7.495 4.08701 7.411 4.19001 7.319C4.29001 7.219 4.40701 7.112 4.52801 6.995L5.45 8.093C5.096 8.463 4.72201 8.736 4.32901 8.905C3.93301 9.078 3.481 9.166 2.979 9.166C2.122 9.166 1.43201 8.944 0.916008 8.503C0.398008 8.058 0.139008 7.408 0.139008 6.541V2.959C0.139008 2.557 0.207007 2.189 0.348007 1.865C0.487007 1.547 0.682005 1.267 0.936005 1.043C1.186 0.814999 1.48501 0.641 1.83201 0.521C2.17201 0.397 2.553 0.334999 2.965 0.334999C3.264 0.334999 3.54301 0.354999 3.77901 0.396999C4.01901 0.439999 4.23801 0.511 4.44201 0.612C4.64001 0.713 4.83201 0.841999 5.00101 1.005C5.17601 1.164 5.336 1.357 5.492 1.583L4.49401 2.558C4.37501 2.363 4.18501 2.178 3.93201 1.999C3.67401 1.821 3.35301 1.731 2.96601 1.721Z" fill="white"/>
<path d="M8.944 5.354V7.651H11.868V9.038H7.431V0.461H11.656V1.848H8.944V4.033H11.228V5.354H8.944Z" fill="white"/>
<path d="M18.593 0.461H19.983V9.038H17.512L15.304 2.214V9.038H13.913V0.461H16.161L18.593 7.414V0.461Z" fill="white"/>
<path d="M21.675 1.848V0.461H27.439V1.848H25.331V9.038H23.771V1.848H21.675Z" fill="white"/>
<path d="M30.681 4.17H31.994C32.221 4.17 32.402 4.111 32.533 3.997C32.666 3.884 32.737 3.705 32.737 3.462V2.644C32.737 2.374 32.678 2.173 32.562 2.042C32.441 1.912 32.249 1.848 31.98 1.848H30.681V4.17ZM33.94 4.673C33.698 4.975 33.36 5.216 32.911 5.394L34.595 9.039H32.999L31.397 5.558H30.68V9.039H29.117V0.462H31.992C32.745 0.462 33.323 0.640999 33.713 0.990999C34.106 1.345 34.297 1.897 34.297 2.657V3.475C34.298 3.968 34.181 4.371 33.94 4.673Z" fill="white"/>
<path d="M40.671 2.955C40.671 2.561 40.536 2.257 40.276 2.042C40.006 1.828 39.682 1.721 39.284 1.721H39.108C38.712 1.721 38.379 1.828 38.118 2.04C37.854 2.247 37.718 2.549 37.718 2.945V6.54C37.718 6.97 37.849 7.284 38.105 7.478C38.361 7.676 38.703 7.774 39.122 7.774H39.285C39.717 7.774 40.051 7.676 40.301 7.478C40.547 7.284 40.672 6.969 40.672 6.54V2.955H40.671ZM40.439 0.51C40.793 0.63 41.108 0.799001 41.372 1.023C41.638 1.244 41.846 1.517 42.005 1.841C42.161 2.166 42.239 2.533 42.239 2.945V6.54C42.239 6.97 42.161 7.346 42.009 7.671C41.856 7.992 41.652 8.265 41.384 8.489C41.118 8.713 40.807 8.878 40.449 8.992C40.095 9.106 39.706 9.165 39.284 9.165H39.121C38.692 9.165 38.296 9.109 37.933 8.999C37.57 8.889 37.261 8.726 36.994 8.502C36.732 8.278 36.527 8.005 36.375 7.674C36.232 7.349 36.156 6.97 36.156 6.54V2.945C36.156 2.54 36.234 2.178 36.39 1.854C36.542 1.532 36.753 1.256 37.021 1.032C37.287 0.811 37.595 0.636001 37.956 0.516001C38.313 0.392001 38.697 0.33 39.109 0.33H39.285C39.699 0.331 40.083 0.393 40.439 0.51Z" fill="white"/>
<path d="M4.42699 17.729C4.42699 17.436 4.38599 17.183 4.28399 16.972C4.18999 16.761 4.05699 16.585 3.89399 16.455C3.72899 16.318 3.53999 16.222 3.32299 16.163C3.11199 16.104 2.88199 16.075 2.634 16.075H1.35299V22.898H2.58899C3.17699 22.898 3.632 22.755 3.953 22.466C4.27 22.173 4.42699 21.768 4.42699 21.248V17.729ZM2.634 15.192C3.51099 15.192 4.18699 15.419 4.65699 15.87C5.12799 16.325 5.35899 16.946 5.35899 17.728V21.249C5.35899 21.704 5.29099 22.093 5.15099 22.415C5.01399 22.736 4.82299 22.999 4.57899 23.204C4.33699 23.401 4.04999 23.552 3.70999 23.642C3.37499 23.736 3.00499 23.785 2.59899 23.785H0.416992V15.192H2.634Z" fill="white"/>
<path d="M8.80801 19.823V22.889H11.909V23.772H7.87601V15.192H11.669V16.075H8.80801V18.962H11.218V19.823H8.80801Z" fill="white"/>
<path d="M16.638 16.455C16.245 16.455 15.937 16.562 15.712 16.773C15.488 16.991 15.378 17.295 15.378 17.692V21.271C15.378 22.096 15.804 22.508 16.654 22.508C16.846 22.508 17.01 22.488 17.157 22.449C17.303 22.414 17.427 22.361 17.544 22.293C17.657 22.225 17.765 22.145 17.862 22.047C17.966 21.953 18.077 21.846 18.206 21.725L19.126 22.823C18.769 23.194 18.397 23.467 18.002 23.638C17.607 23.809 17.157 23.895 16.654 23.895C15.797 23.895 15.108 23.674 14.589 23.233C14.075 22.791 13.81 22.138 13.81 21.271V17.692C13.81 17.286 13.881 16.922 14.025 16.598C14.161 16.276 14.359 16 14.609 15.772C14.863 15.545 15.162 15.37 15.505 15.251C15.846 15.127 16.226 15.068 16.638 15.068C16.944 15.068 17.216 15.088 17.453 15.127C17.694 15.173 17.915 15.24 18.116 15.345C18.317 15.443 18.505 15.575 18.677 15.735C18.85 15.894 19.013 16.089 19.165 16.316L18.167 17.287C18.048 17.093 17.862 16.908 17.606 16.732C17.347 16.553 17.028 16.462 16.638 16.455Z" fill="white"/>
<path d="M25.521 15.192H27.084V21.183C27.084 21.627 27.016 22.018 26.862 22.356C26.716 22.693 26.515 22.973 26.252 23.204C25.992 23.431 25.68 23.603 25.313 23.72C24.95 23.841 24.542 23.896 24.096 23.896C23.65 23.896 23.244 23.841 22.881 23.727C22.514 23.613 22.195 23.445 21.933 23.217C21.671 22.989 21.465 22.704 21.319 22.363C21.176 22.022 21.108 21.629 21.108 21.184V15.193H22.671V21.184C22.671 21.639 22.798 21.974 23.044 22.187C23.291 22.402 23.636 22.509 24.083 22.509C24.528 22.509 24.88 22.402 25.136 22.187C25.396 21.974 25.523 21.639 25.523 21.184V15.192H25.521Z" fill="white"/>
<path d="M30.995 15.192V22.382H34.175V23.769H29.481V15.192H30.995Z" fill="white"/>
<path d="M34.363 16.582V15.195H40.132V16.582H38.021V23.769H36.458V16.582H34.363Z" fill="white"/>
<path d="M46.236 15.192H47.798V21.183C47.798 21.627 47.728 22.018 47.577 22.356C47.429 22.693 47.227 22.973 46.964 23.204C46.704 23.431 46.392 23.603 46.026 23.72C45.662 23.841 45.255 23.896 44.808 23.896C44.36 23.896 43.956 23.841 43.593 23.727C43.226 23.613 42.911 23.445 42.645 23.217C42.382 22.989 42.177 22.704 42.031 22.363C41.892 22.022 41.82 21.629 41.82 21.184V15.193H43.386V21.184C43.386 21.639 43.509 21.974 43.752 22.187C44.003 22.402 44.35 22.509 44.794 22.509C45.239 22.509 45.591 22.402 45.847 22.187C46.111 21.974 46.237 21.639 46.237 21.184V15.192H46.236Z" fill="white"/>
<path d="M51.747 18.9H53.06C53.287 18.9 53.469 18.841 53.603 18.731C53.736 18.615 53.804 18.439 53.804 18.192V17.374C53.804 17.104 53.745 16.907 53.628 16.776C53.508 16.646 53.314 16.579 53.046 16.579H51.747V18.9ZM55.009 19.404C54.769 19.706 54.423 19.95 53.98 20.125L55.658 23.769H54.07L52.466 20.288H51.747V23.769H50.183V15.193H53.06C53.817 15.193 54.392 15.371 54.782 15.722C55.172 16.076 55.37 16.631 55.37 17.388V18.209C55.369 18.702 55.249 19.103 55.009 19.404Z" fill="white"/>
<path d="M60.941 20.476L60.149 16.757L59.34 20.476H60.941ZM61.12 15.166L63.351 23.772H61.762L61.269 21.739H59.015L58.508 23.772H56.904L59.2 15.166H61.12Z" fill="white"/>
<path d="M4.203 32.537C4.203 32.108 4.09299 31.797 3.86499 31.602C3.63699 31.407 3.30899 31.309 2.87399 31.309H1.92299V37.129H2.77499C3.20099 37.129 3.54499 37.027 3.80799 36.833C4.06999 36.635 4.20399 36.32 4.20399 35.891V32.537H4.203ZM2.87799 29.923C3.76099 29.923 4.45599 30.141 4.95999 30.569C5.46399 30.997 5.71999 31.654 5.71999 32.537V35.891C5.71999 36.814 5.45599 37.486 4.94099 37.899C4.42099 38.311 3.70299 38.516 2.77799 38.516H0.40799V29.922H2.87799V29.923Z" fill="white"/>
<path d="M9.855 29.923H8.29199V38.503H9.855V29.923Z" fill="white"/>
<path d="M15.216 33.759H18.116V37.542C17.713 37.899 17.284 38.165 16.829 38.351C16.375 38.537 15.891 38.626 15.368 38.626C14.946 38.626 14.555 38.571 14.199 38.461C13.842 38.347 13.534 38.175 13.273 37.954C13.01 37.729 12.805 37.458 12.659 37.126C12.511 36.798 12.438 36.425 12.438 36.006V32.424C12.438 32.018 12.51 31.657 12.667 31.333C12.815 31.007 13.021 30.731 13.283 30.505C13.546 30.276 13.854 30.105 14.212 29.982C14.57 29.859 14.949 29.8 15.355 29.8C15.951 29.8 16.457 29.904 16.873 30.114C17.291 30.325 17.652 30.631 17.951 31.033L16.983 32.104C16.769 31.865 16.525 31.647 16.246 31.461C15.963 31.275 15.668 31.186 15.355 31.186C14.957 31.186 14.625 31.295 14.359 31.514C14.089 31.731 13.957 32.034 13.957 32.423V36.005C13.957 36.424 14.084 36.735 14.34 36.94C14.596 37.142 14.938 37.239 15.363 37.239C15.606 37.239 15.817 37.217 16.002 37.177C16.182 37.135 16.376 37.034 16.578 36.875V35.021H15.217V33.759H15.216Z" fill="white"/>
<path d="M22.341 29.923H20.778V38.503H22.341V29.923Z" fill="white"/>
<path d="M24.487 31.313V29.927H30.252V31.313H28.144V38.503H26.582V31.313H24.487Z" fill="white"/>
<path d="M34.792 35.21L33.997 31.488L33.19 35.21H34.792ZM34.971 29.9L37.202 38.503H35.61L35.12 36.474H32.866L32.36 38.503H30.758L33.051 29.9H34.971Z" fill="white"/>
<path d="M40.53 29.923V37.116H43.714V38.499H39.017V29.923H40.53Z" fill="white"/>
</svg>
