<svg width="32" height="32" viewBox="0 0 32 32" fill="none" xmlns="http://www.w3.org/2000/svg">
<path fill-rule="evenodd" clip-rule="evenodd" d="M26.67 4H5.33C4.59773 4.00544 4.00544 4.59773 4 5.33V26.67C4.00544 27.4023 4.59773 27.9946 5.33 28H16.82V18.72H13.7V15.09H16.82V12.42C16.82 9.32 18.71 7.63 21.49 7.63C22.42 7.63 23.35 7.63 24.28 7.77V11H22.37C20.86 11 20.57 11.72 20.57 12.77V15.08H24.17L23.7 18.71H20.57V28H26.67C27.4023 27.9946 27.9946 27.4023 28 26.67V5.33C27.9946 4.59773 27.4023 4.00544 26.67 4Z" fill="white"/>
</svg>
