<svg width="32" height="32" viewBox="0 0 32 32" fill="none" xmlns="http://www.w3.org/2000/svg">
<path fill-rule="evenodd" clip-rule="evenodd" d="M27.39 13.82H16.21V18.45H22.65C22.05 21.4 19.54 23.09 16.21 23.09C12.2943 23.09 9.12 19.9157 9.12 16C9.12 12.0843 12.2943 8.91001 16.21 8.91001C17.8213 8.91228 19.3824 9.47034 20.63 10.49L24.12 7.00001C20.1138 3.46688 14.2545 3.00717 9.74631 5.87226C5.23809 8.73736 3.16641 14.2374 4.66415 19.3647C6.16188 24.4921 10.8684 28.0121 16.21 28C22.21 28 27.66 23.64 27.66 16C27.6541 15.2654 27.5635 14.5339 27.39 13.82Z" fill="black"/>
</svg>
