<svg width="32" height="32" viewBox="0 0 32 32" fill="none" xmlns="http://www.w3.org/2000/svg">
<path fill-rule="evenodd" clip-rule="evenodd" d="M11.92 24.94C15.3319 24.9615 18.6103 23.6156 21.0229 21.2029C23.4356 18.7903 24.7815 15.5119 24.76 12.1V11.51C25.6356 10.8685 26.3935 10.0802 27 9.18C26.1755 9.5406 25.3031 9.77975 24.41 9.89C25.3569 9.32578 26.0674 8.43767 26.41 7.39C25.5275 7.91944 24.5598 8.29164 23.55 8.49C22.1518 7.00023 19.9282 6.63359 18.1257 7.59566C16.3233 8.55772 15.3904 10.6093 15.85 12.6C12.2218 12.4219 8.84048 10.7094 6.55 7.89C5.36496 9.94678 5.97706 12.5701 7.95 13.89C7.24861 13.863 6.56345 13.6711 5.95 13.33V13.38C5.93716 15.5144 7.41605 17.3683 9.5 17.83C8.84764 18.0055 8.16429 18.0328 7.5 17.91C8.09994 19.7201 9.77352 20.9573 11.68 21C10.0892 22.2805 8.11209 22.9854 6.07 23C5.71195 22.9896 5.35475 22.9596 5 22.91C7.06696 24.2269 9.4692 24.9212 11.92 24.91" fill="black"/>
</svg>
